<svg width="103" height="23" viewBox="0 0 103 23" fill="none" xmlns="http://www.w3.org/2000/svg">
<g clip-path="url(#clip0_695_2)">
<path d="M98.3523 5V2.09091H99.3352C99.5625 2.09091 99.7491 2.12973 99.8949 2.20739C100.041 2.28409 100.149 2.38968 100.219 2.52415C100.289 2.65862 100.324 2.81155 100.324 2.98295C100.324 3.15436 100.289 3.30634 100.219 3.43892C100.149 3.5715 100.041 3.67566 99.8963 3.75142C99.7514 3.82623 99.5663 3.86364 99.3409 3.86364H98.5455V3.54545H99.3295C99.4848 3.54545 99.6098 3.52273 99.7045 3.47727C99.8002 3.43182 99.8693 3.36742 99.9119 3.28409C99.9555 3.19981 99.9773 3.09943 99.9773 2.98295C99.9773 2.86648 99.9555 2.76468 99.9119 2.67756C99.8684 2.59044 99.7988 2.5232 99.7031 2.47585C99.6075 2.42756 99.4811 2.40341 99.3239 2.40341H98.7045V5H98.3523ZM99.7216 3.69318L100.438 5H100.028L99.3239 3.69318H99.7216Z" fill="#0F172A"/>
<path d="M1.93672 18.8928C2.46932 18.8928 2.9535 19.0817 3.29243 19.4593C3.67977 19.837 3.87344 20.3091 3.87344 20.8284C3.87344 21.3478 3.67977 21.8199 3.29243 22.1975C2.90508 22.5752 2.46932 22.7641 1.93672 22.7641C1.40412 22.7641 0.919942 22.5752 0.532598 22.1975C0.193672 21.8199 0 21.3478 0 20.8284C0 20.3091 0.193672 19.837 0.581016 19.4593C0.968361 19.0817 1.40412 18.8928 1.93672 18.8928Z" fill="#0063A5"/>
<path d="M52.4851 3.83252C53.0177 3.83252 53.5019 4.02136 53.8408 4.39904C54.2282 4.77673 54.4219 5.24883 54.4219 5.76814C54.4219 6.28746 54.2282 6.75956 53.8408 7.13724C53.4535 7.51492 53.0177 7.70376 52.4851 7.70376C51.9525 7.70376 51.4684 7.51492 51.081 7.13724C50.6937 6.75956 50.5 6.28746 50.5 5.76814C50.5 5.24883 50.6937 4.77673 51.081 4.39904C51.4684 4.02136 51.9525 3.83252 52.4851 3.83252Z" fill="#0F172A"/>
<path d="M51.5649 22.6223V11.5751H49.7734V9.3562H53.9374V22.6223H51.5649Z" fill="#0F172A"/>
<path d="M96.2057 1H93.9785V22.7639H96.2057V1Z" fill="#0F172A"/>
<path d="M18.9798 16.2489C18.6893 19.8841 15.5905 22.7639 11.8139 22.7639C7.84362 22.7639 4.59961 19.6009 4.59961 15.7296C4.59961 11.8584 7.84362 8.69528 11.8139 8.69528C13.7022 8.69528 15.4452 9.40343 16.7525 10.5837H16.801V1H19.0282V16.3433L18.9798 16.2489ZM11.7171 10.8197C8.95723 10.8197 6.68158 12.9914 6.68158 15.7296C6.68158 18.4206 8.90881 20.6395 11.7171 20.6395C14.4769 20.6395 16.7525 18.4678 16.7525 15.7296C16.7525 13.0386 14.4769 10.8197 11.7171 10.8197Z" fill="#0063A5"/>
<path d="M47.8369 10.5365C46.5296 9.40347 44.835 8.69531 42.9467 8.69531C38.9764 8.69531 35.7324 11.8584 35.7324 15.7296C35.7324 19.6009 38.9764 22.764 42.9467 22.764C45.416 22.764 47.6433 21.5365 48.9021 19.6481L46.9654 18.6095C46.0455 19.8369 44.5929 20.6395 42.8983 20.6395C40.1385 20.6395 37.8628 18.4678 37.8628 15.7296C37.8628 13.0387 40.09 10.8198 42.8983 10.8198C44.3024 10.8198 45.5129 11.3863 46.4328 12.2361L47.8369 10.5365Z" fill="#0F172A"/>
<path d="M72.4329 13.3692C72.3361 12.0001 71.174 10.9143 69.7215 10.9143C68.3174 10.9143 67.1553 12.0001 67.0101 13.322V22.6224H64.686V13.322C64.5892 11.9529 63.4272 10.9143 62.023 10.9143C60.6189 10.9143 59.4569 12.0001 59.36 13.322V22.6224H57.1328V9.35632H59.36V10.5838C60.28 9.40353 61.3936 8.78979 62.7493 8.78979C64.6376 8.78979 65.3639 9.92284 66.1386 11.0559C66.3807 10.5838 67.3006 9.63958 68.0269 9.30911C68.7531 8.97864 69.6247 8.78979 70.3993 8.78979C71.7551 8.78979 72.9655 9.49795 73.7402 10.3005C74.5149 11.1031 74.8538 12.2361 74.8538 13.6525V22.6224H72.4329L72.4813 13.4164" fill="#0F172A"/>
<path d="M34.7645 16.2488H22.5632C22.8537 18.6565 24.9841 20.5449 27.5502 20.5449C29.1964 20.5449 30.6974 19.7424 31.6173 18.5149L33.5541 19.5535C32.2468 21.4419 30.068 22.6694 27.5986 22.6694C23.5799 22.7166 20.3359 19.5535 20.3359 15.6823C20.3359 11.811 23.5799 8.64795 27.5502 8.64795C31.5205 8.64795 34.7645 11.7638 34.7645 15.6351C34.8129 15.8711 34.8129 16.06 34.7645 16.2488ZM32.2952 14.0299C31.6173 12.1415 29.729 10.7724 27.5502 10.7724C25.3714 10.7724 23.4831 12.1415 22.8053 14.0771H32.2952V14.0299Z" fill="#0F172A"/>
<path d="M88.8478 20.8284C87.1047 22.4335 84.587 23.1889 81.8756 22.4807C79.5515 21.867 77.6632 20.073 76.9853 17.8541C75.5328 13.0859 79.2126 8.69531 83.8607 8.69531C85.7974 8.69531 87.5405 9.40347 88.7993 10.6309L89.1383 10.9614C90.3487 12.1889 91.0266 13.8412 91.0266 15.588V22.7168H88.7993L88.8478 20.8284ZM88.8478 16.1073V15.4464V15.5408C88.7509 12.7554 86.1848 10.5365 83.2313 10.867C80.9556 11.1502 79.1157 12.9442 78.8736 15.1631C78.5347 18.1374 80.9072 20.5923 83.8607 20.5923C86.5721 20.5923 88.7509 18.5151 88.8478 15.9185V16.1073Z" fill="#0F172A"/>
<path d="M102 3.5C102 4.17335 101.754 4.78223 101.261 5.26934C100.768 5.75645 100.21 6 99.529 6C98.8478 6 98.2319 5.75645 97.7391 5.26934C97.2464 4.78223 97 4.17335 97 3.5C97 2.82665 97.2464 2.21777 97.7391 1.73066C98.2319 1.24355 98.8478 1 99.529 1C100.21 1 100.826 1.24355 101.261 1.73066C101.754 2.21777 102 2.83381 102 3.5Z" stroke="#0F172A" stroke-width="0.5" stroke-miterlimit="10"/>
</g>
<defs>
<clipPath id="clip0_695_2">
<rect width="103" height="23" fill="white"/>
</clipPath>
</defs>
</svg>
