<svg width="20" height="22" viewBox="0 0 20 22" fill="none" xmlns="http://www.w3.org/2000/svg">
<path d="M1.93672 17.8928C2.46932 17.8928 2.9535 18.0817 3.29243 18.4593C3.67977 18.837 3.87344 19.3091 3.87344 19.8284C3.87344 20.3478 3.67977 20.8199 3.29243 21.1975C2.90508 21.5752 2.46932 21.7641 1.93672 21.7641C1.40412 21.7641 0.919942 21.5752 0.532598 21.1975C0.193672 20.8199 0 20.3478 0 19.8284C0 19.3091 0.193672 18.837 0.581016 18.4593C0.96836 18.0817 1.40412 17.8928 1.93672 17.8928Z" fill="#0063A5"/>
<path d="M18.9798 15.2489C18.6893 18.8841 15.5905 21.7639 11.8139 21.7639C7.84362 21.7639 4.59961 18.6009 4.59961 14.7296C4.59961 10.8584 7.84362 7.69528 11.8139 7.69528C13.7022 7.69528 15.4452 8.40343 16.7525 9.58369H16.801V0H19.0282V15.3433L18.9798 15.2489ZM11.7171 9.81974C8.95723 9.81974 6.68158 11.9914 6.68158 14.7296C6.68158 17.4206 8.90881 19.6395 11.7171 19.6395C14.4769 19.6395 16.7525 17.4678 16.7525 14.7296C16.7525 12.0386 14.4769 9.81974 11.7171 9.81974Z" fill="#0063A5"/>
</svg>
